<svg xmlns="http://www.w3.org/2000/svg" viewBox="0 0 60.77 31.04"><defs><style>.cls-1{fill:#ba8549;}.cls-2{fill:#f5f5f5;}</style></defs><title>King&amp;amp;Agency</title><g id="Layer_2" data-name="Layer 2"><g id="Layer_1-2" data-name="Layer 1"><path class="cls-1" d="M4.26,10.34a6.71,6.71,0,0,0,.06,1,1.11,1.11,0,0,0,.26.59.94.94,0,0,0,.52.28,4.43,4.43,0,0,0,.9.07v.61H.82v-.61a4.43,4.43,0,0,0,.9-.07,1.06,1.06,0,0,0,.54-.27,1.12,1.12,0,0,0,.25-.56,5.65,5.65,0,0,0,.07-.92V3A5,5,0,0,0,2.5,2a1,1,0,0,0-.25-.55.89.89,0,0,0-.49-.25A5.35,5.35,0,0,0,1,1.17V.56H5.84v.61a4.11,4.11,0,0,0-.78.06.87.87,0,0,0-.49.27,1.19,1.19,0,0,0-.25.59,6.73,6.73,0,0,0-.06,1v4l4-4.82a1.2,1.2,0,0,0,.32-.62c0-.3-.31-.45-.92-.45V.56h3.86v.59a4.45,4.45,0,0,0-.56,0,1.4,1.4,0,0,0-.47.17,2.52,2.52,0,0,0-.49.37c-.17.16-.37.37-.59.62l-3,3.47,4.67,5.62a3,3,0,0,0,.75.65,2.12,2.12,0,0,0,.95.18v.61H7.86v-.61a2.73,2.73,0,0,0,.89-.1A.35.35,0,0,0,9,11.84a.91.91,0,0,0-.12-.37,4.22,4.22,0,0,0-.42-.59L5.36,7,4.26,8.32Z"/><path class="cls-1" d="M16.21,10.34a8.82,8.82,0,0,0,.05,1,1.32,1.32,0,0,0,.22.59.82.82,0,0,0,.45.29,3,3,0,0,0,.77.1v.56H13.1v-.56a3.92,3.92,0,0,0,.79-.1,1,1,0,0,0,.47-.29,1.1,1.1,0,0,0,.22-.56,5.8,5.8,0,0,0,.06-.92v-2c0-.62,0-1.13,0-1.53a4.58,4.58,0,0,0-.09-.82.7.7,0,0,0-.37-.51,3,3,0,0,0-1.09-.13V4.85l3.14-.61ZM14.37,1a.91.91,0,0,1,.29-.7,1,1,0,0,1,1.4,0,.91.91,0,0,1,.29.7,1,1,0,0,1-.29.71,1,1,0,0,1-1.4,0A1,1,0,0,1,14.37,1Z"/><path class="cls-1" d="M21.47,10.37c0,.43,0,.78,0,1a1.25,1.25,0,0,0,.17.58.66.66,0,0,0,.4.26,6.46,6.46,0,0,0,.73.1v.54H18.61v-.54a6.34,6.34,0,0,0,.71-.1.68.68,0,0,0,.41-.26,1.18,1.18,0,0,0,.18-.54,8.17,8.17,0,0,0,0-1V8.35A16.44,16.44,0,0,0,19.86,6a2.58,2.58,0,0,0-.12-.34.5.5,0,0,0-.22-.21,1.17,1.17,0,0,0-.37-.1l-.57,0V4.85l2.56-.61.19,1.58h.06a4.28,4.28,0,0,1,1.43-1.16,3.79,3.79,0,0,1,1.77-.42,3.68,3.68,0,0,1,1.35.24,2.08,2.08,0,0,1,.92.66,2.37,2.37,0,0,1,.39,1,9.45,9.45,0,0,1,.11,1.61v2.67a9.43,9.43,0,0,0,0,1,1.38,1.38,0,0,0,.17.58.58.58,0,0,0,.39.26,6.47,6.47,0,0,0,.7.1v.54H24.51v-.54a3,3,0,0,0,.71-.09.69.69,0,0,0,.4-.27,1.18,1.18,0,0,0,.18-.55,8.2,8.2,0,0,0,0-.95V8.37a9.6,9.6,0,0,0-.1-1.54,2.87,2.87,0,0,0-.31-1,1.26,1.26,0,0,0-.57-.55A1.93,1.93,0,0,0,24,5.1a2.45,2.45,0,0,0-1.32.38,2.53,2.53,0,0,0-.94,1c-.05.11-.1.21-.14.31a2,2,0,0,0-.08.33,2.81,2.81,0,0,0-.05.44c0,.17,0,.38,0,.63Z"/><path class="cls-1" d="M32.54,11.31l.71.07.63.06.62.08.68.1A3.13,3.13,0,0,1,37,12.5a2.44,2.44,0,0,1,.7,1.79,2.32,2.32,0,0,1-1.07,2.05,5.66,5.66,0,0,1-3.08.7,7.67,7.67,0,0,1-1.64-.16,4.61,4.61,0,0,1-1.27-.46,2.3,2.3,0,0,1-.82-.71,1.53,1.53,0,0,1-.3-.91,1.8,1.8,0,0,1,.11-.62,1.74,1.74,0,0,1,.31-.51,1.37,1.37,0,0,1,.45-.34A1.2,1.2,0,0,1,31,13.2a1.52,1.52,0,0,1,1,.34,1.12,1.12,0,0,0-.7.47,1.42,1.42,0,0,0-.28.85,1.2,1.2,0,0,0,.7,1.09,4.08,4.08,0,0,0,2,.39q2.73,0,2.73-1.68A1.42,1.42,0,0,0,36,13.59a1.76,1.76,0,0,0-1-.5l-.8-.11-.8-.1-.72-.08-.55-.06a2.66,2.66,0,0,1-1.36-.48,1.3,1.3,0,0,1-.46-1.06,1.32,1.32,0,0,1,.46-1,2.2,2.2,0,0,1,1.17-.55V9.6a2.58,2.58,0,0,1-.66-.41,2.46,2.46,0,0,1-.51-.6,2.9,2.9,0,0,1-.35-.73,2.73,2.73,0,0,1-.13-.8,2.59,2.59,0,0,1,.24-1.12,2.5,2.5,0,0,1,.65-.89,3.11,3.11,0,0,1,1-.59,3.48,3.48,0,0,1,1.26-.22,3.87,3.87,0,0,1,1.33.22,2.91,2.91,0,0,1,1.08.63,4.64,4.64,0,0,1,1-.65,1.81,1.81,0,0,1,.78-.2,1.52,1.52,0,0,1,.92.26.86.86,0,0,1,.34.72.55.55,0,0,1-.18.43.71.71,0,0,1-.46.16.74.74,0,0,1-.36-.08l-.27-.17-.25-.17a.61.61,0,0,0-.32-.08,1.41,1.41,0,0,0-.78.27,2.66,2.66,0,0,1,.38,1.49,2.77,2.77,0,0,1-.84,2.14,4.12,4.12,0,0,1-2.55.9,6.79,6.79,0,0,0-1.36.21.48.48,0,0,0-.38.46.39.39,0,0,0,.29.38A2.64,2.64,0,0,0,32.54,11.31Zm.88-1.87a1.17,1.17,0,0,0,1-.61,3.23,3.23,0,0,0,.38-1.71,3.18,3.18,0,0,0-.38-1.69,1.18,1.18,0,0,0-1.06-.6,1.25,1.25,0,0,0-1.1.61A3,3,0,0,0,31.9,7.1a3.06,3.06,0,0,0,.42,1.7A1.25,1.25,0,0,0,33.42,9.44Z"/><path class="cls-1" d="M51.63,9.54c.26-.32.49-.64.71-.94s.41-.59.57-.86A5.72,5.72,0,0,0,53.28,7a1.72,1.72,0,0,0,.13-.54.38.38,0,0,0-.24-.37A1.71,1.71,0,0,0,52.43,6V5.41h3.68V6a3.54,3.54,0,0,0-.6,0,1.34,1.34,0,0,0-.8.39,2.56,2.56,0,0,0-.33.42l-2.27,3.32a5.73,5.73,0,0,0,1.4,1.39A2.7,2.7,0,0,0,55,12a1.4,1.4,0,0,0,.37,0,1.11,1.11,0,0,0,.29-.14,1.41,1.41,0,0,0,.26-.28,4.3,4.3,0,0,0,.25-.45l.4.11a2.2,2.2,0,0,1-.79,1.37,2.52,2.52,0,0,1-1.58.47A3.1,3.1,0,0,1,53.4,13a3.36,3.36,0,0,1-.73-.29,5.39,5.39,0,0,1-.78-.55,12.28,12.28,0,0,1-.92-.83,5.81,5.81,0,0,1-1.84,1.3A5.39,5.39,0,0,1,47,13a3.9,3.9,0,0,1-1.35-.22,3.2,3.2,0,0,1-1.06-.59,2.77,2.77,0,0,1-.71-.89,2.56,2.56,0,0,1-.25-1.13,2.85,2.85,0,0,1,.86-2,9.62,9.62,0,0,1,2.77-1.85,6.5,6.5,0,0,1-.75-1.41,4.15,4.15,0,0,1-.23-1.37,4.06,4.06,0,0,1,.2-1.29,2.81,2.81,0,0,1,.57-1,2.59,2.59,0,0,1,.88-.65A2.78,2.78,0,0,1,49.05.4a2.66,2.66,0,0,1,1,.18,2.33,2.33,0,0,1,.8.49,2.59,2.59,0,0,1,.52.75,2.49,2.49,0,0,1,.18,1A2.74,2.74,0,0,1,51,4.46,7.88,7.88,0,0,1,49,6.16Zm-4-2.48a4.78,4.78,0,0,0-1.57,1.35A2.71,2.71,0,0,0,45.55,10a2,2,0,0,0,.57,1.44,2,2,0,0,0,1.46.57A3.65,3.65,0,0,0,49,11.7a5.54,5.54,0,0,0,1.46-.95Zm.91-1.51a4.15,4.15,0,0,0,1.12-1.21A2.57,2.57,0,0,0,50.06,3a1.93,1.93,0,0,0-.33-1.19,1.07,1.07,0,0,0-.9-.44c-.7,0-1,.53-1,1.61A4.33,4.33,0,0,0,48,4.34,4.17,4.17,0,0,0,48.59,5.55Z"/><path class="cls-2" d="M7.9,22.42H3.63c-.18.43-.33.82-.46,1.16s-.23.62-.31.87a4.6,4.6,0,0,0-.17.62,2.6,2.6,0,0,0,0,.42.64.64,0,0,0,.29.61,2,2,0,0,0,1,.17v.61H0v-.61a3,3,0,0,0,.63-.13,1.7,1.7,0,0,0,.47-.22,1.43,1.43,0,0,0,.35-.38A3,3,0,0,0,1.74,25L5.9,14.56h.69l3.63,9c.25.6.46,1.08.64,1.43a3.43,3.43,0,0,0,.53.81,1.19,1.19,0,0,0,.55.35,2.55,2.55,0,0,0,.72.08v.63H7.44v-.63a2.9,2.9,0,0,0,1.17-.16.54.54,0,0,0,.32-.52,2.66,2.66,0,0,0,0-.3c0-.09,0-.19-.05-.3s-.07-.22-.12-.35-.11-.3-.18-.48ZM4,21.62H7.6L5.82,16.89Z"/><path class="cls-2" d="M16,25.31l.71.07.63.06.62.08.68.1a3.13,3.13,0,0,1,1.85.88,2.48,2.48,0,0,1,.7,1.79,2.29,2.29,0,0,1-1.07,2A5.59,5.59,0,0,1,17,31a7.6,7.6,0,0,1-1.64-.16,4.61,4.61,0,0,1-1.27-.46,2.42,2.42,0,0,1-.83-.71A1.59,1.59,0,0,1,13,28.8a1.9,1.9,0,0,1,.11-.63,1.69,1.69,0,0,1,.31-.5,1.37,1.37,0,0,1,.45-.34,1.2,1.2,0,0,1,.55-.13,1.52,1.52,0,0,1,1,.34,1.12,1.12,0,0,0-.7.47,1.36,1.36,0,0,0-.28.85,1.2,1.2,0,0,0,.7,1.09,4.09,4.09,0,0,0,2,.38c1.82,0,2.73-.55,2.73-1.67a1.42,1.42,0,0,0-.43-1.07,1.76,1.76,0,0,0-1-.5L17.54,27l-.8-.1L16,26.8l-.55-.06a2.54,2.54,0,0,1-1.36-.49,1.27,1.27,0,0,1-.46-1.05,1.32,1.32,0,0,1,.46-1,2.2,2.2,0,0,1,1.17-.55V23.6a2.42,2.42,0,0,1-.66-.41,3.3,3.3,0,0,1-.52-.6,3,3,0,0,1-.34-.73,2.45,2.45,0,0,1-.13-.81,2.8,2.8,0,0,1,.23-1.12,2.72,2.72,0,0,1,.66-.88,3.11,3.11,0,0,1,1-.59,3.4,3.4,0,0,1,1.26-.22,3.87,3.87,0,0,1,1.33.22,2.86,2.86,0,0,1,1.07.63,5.24,5.24,0,0,1,1-.65,1.88,1.88,0,0,1,.79-.2,1.52,1.52,0,0,1,.92.26.86.86,0,0,1,.34.71.56.56,0,0,1-.18.44.73.73,0,0,1-.46.16.81.81,0,0,1-.37-.08l-.26-.17a2.2,2.2,0,0,0-.25-.17.61.61,0,0,0-.32-.08,1.39,1.39,0,0,0-.78.27A2.75,2.75,0,0,1,20,21.07a2.74,2.74,0,0,1-.85,2.14,4.13,4.13,0,0,1-2.54.9,6.12,6.12,0,0,0-1.36.21.46.46,0,0,0-.38.46.4.4,0,0,0,.28.38A2.71,2.71,0,0,0,16,25.31Zm.88-1.87a1.17,1.17,0,0,0,1.05-.61,3.27,3.27,0,0,0,.37-1.71,3.19,3.19,0,0,0-.37-1.69,1.19,1.19,0,0,0-1.06-.6,1.25,1.25,0,0,0-1.1.61,3,3,0,0,0-.41,1.66,3.06,3.06,0,0,0,.42,1.7A1.24,1.24,0,0,0,16.83,23.44Z"/><path class="cls-2" d="M30.3,25.39A4.19,4.19,0,0,1,26.93,27a4.65,4.65,0,0,1-1.71-.31,3.69,3.69,0,0,1-1.32-.88A4,4,0,0,1,23,24.49a4.91,4.91,0,0,1-.3-1.75,4.82,4.82,0,0,1,.32-1.81A4,4,0,0,1,24,19.5a4.17,4.17,0,0,1,1.39-.92,4.47,4.47,0,0,1,1.77-.34,2.95,2.95,0,0,1,3.25,3.25q0,.23-.09.27a1.11,1.11,0,0,1-.41,0H24.61a2,2,0,0,0-.05.31c0,.12,0,.26,0,.41a5.46,5.46,0,0,0,.2,1.51,3.61,3.61,0,0,0,.58,1.16,2.56,2.56,0,0,0,.9.74,2.45,2.45,0,0,0,1.16.27,2.64,2.64,0,0,0,1.24-.3,4.34,4.34,0,0,0,1.19-1Zm-2.64-4.32a3.79,3.79,0,0,0,.52,0,.84.84,0,0,0,.28-.06.22.22,0,0,0,.13-.14.67.67,0,0,0,0-.23,1.49,1.49,0,0,0-.47-1.17A1.77,1.77,0,0,0,26.86,19c-1.15,0-1.86.69-2.14,2.06Z"/><path class="cls-2" d="M34.58,24.37c0,.43,0,.78,0,1a1.17,1.17,0,0,0,.17.57.61.61,0,0,0,.4.27,4.63,4.63,0,0,0,.72.09v.55H31.71v-.55a4.64,4.64,0,0,0,.71-.09.65.65,0,0,0,.41-.26,1.11,1.11,0,0,0,.19-.54c0-.24,0-.56,0-1V22.35A15.77,15.77,0,0,0,33,20a1.22,1.22,0,0,0-.12-.34.5.5,0,0,0-.22-.21,1,1,0,0,0-.36-.1l-.58,0v-.51l2.56-.61.19,1.58h.07a4.25,4.25,0,0,1,1.42-1.16,3.83,3.83,0,0,1,1.78-.42,3.63,3.63,0,0,1,1.34.24,2.19,2.19,0,0,1,.93.65,2.33,2.33,0,0,1,.38,1,8.52,8.52,0,0,1,.11,1.61v2.67c0,.43,0,.78,0,1a1.43,1.43,0,0,0,.17.57.61.61,0,0,0,.39.27,4.85,4.85,0,0,0,.7.09v.55H37.62v-.55a3.88,3.88,0,0,0,.71-.08.72.72,0,0,0,.4-.27,1.12,1.12,0,0,0,.17-.55,8.2,8.2,0,0,0,0-.95V22.37a11.1,11.1,0,0,0-.09-1.54,3.35,3.35,0,0,0-.31-1,1.37,1.37,0,0,0-.57-.55,2,2,0,0,0-.85-.17,2.45,2.45,0,0,0-1.32.38,2.6,2.6,0,0,0-.94,1l-.13.3a1.53,1.53,0,0,0-.09.34c0,.13,0,.28,0,.44s0,.38,0,.63Z"/><path class="cls-2" d="M50.24,25.55a3.8,3.8,0,0,1-1.49,1.1,5,5,0,0,1-2,.39,4,4,0,0,1-1.56-.31A3.57,3.57,0,0,1,44,25.85a3.94,3.94,0,0,1-.79-1.37,5.28,5.28,0,0,1-.28-1.78,5,5,0,0,1,.32-1.85,4,4,0,0,1,.9-1.4,4,4,0,0,1,1.41-.9,5,5,0,0,1,1.82-.31,5.66,5.66,0,0,1,1.13.1,3.87,3.87,0,0,1,.89.29,1.58,1.58,0,0,1,.58.45.87.87,0,0,1,.21.57.59.59,0,0,1-.21.49.85.85,0,0,1-.57.18.9.9,0,0,1-.48-.12,2.07,2.07,0,0,1-.5-.54,2.28,2.28,0,0,0-.61-.52,1.69,1.69,0,0,0-.76-.15,1.91,1.91,0,0,0-1.72.88,4.7,4.7,0,0,0-.59,2.59,5,5,0,0,0,.65,2.79,2.14,2.14,0,0,0,1.9,1,3,3,0,0,0,1.26-.27,4.3,4.3,0,0,0,1.2-.85Z"/><path class="cls-2" d="M55.22,29.39A2.43,2.43,0,0,1,52.93,31c-.67,0-1-.25-1-.75a.66.66,0,0,1,.28-.59,3.16,3.16,0,0,1,1-.31,2.6,2.6,0,0,0,.58-.14,1.59,1.59,0,0,0,.43-.22,1.37,1.37,0,0,0,.34-.34,3.42,3.42,0,0,0,.3-.52l.56-1.12-3.07-6.67c-.14-.3-.26-.53-.36-.71a2.1,2.1,0,0,0-.32-.42.82.82,0,0,0-.38-.2,2.88,2.88,0,0,0-.53-.09V18.4H55V19c-.71,0-1.07.17-1.07.53a2.49,2.49,0,0,0,.13.65,8.23,8.23,0,0,0,.32.91l1.76,4.26h.08l1.46-3.6c.13-.35.25-.64.34-.86s.16-.41.21-.56a1.57,1.57,0,0,0,.09-.36,1.24,1.24,0,0,0,0-.27.63.63,0,0,0-.23-.56,2,2,0,0,0-.89-.14V18.4h3.52V19a1.47,1.47,0,0,0-.51.08,1,1,0,0,0-.43.36,5.57,5.57,0,0,0-.48.81c-.17.35-.39.82-.65,1.42Z"/></g></g></svg>